<svg aria-hidden="true" style="position: absolute; width: 0; height: 0; overflow: hidden;" version="1.1" xmlns="http://www.w3.org/2000/svg" xmlns:xlink="http://www.w3.org/1999/xlink">
<defs>
<symbol id="icon-airplane" viewBox="0 0 32 32">
<path fill="#fff" style="fill: var(--color1, #fff)" d="M30.819 0.078l-3.386 1.541c-0.217 0.1-0.417 0.237-0.587 0.407l-5.518 5.521-19.003-2.279c-0.344-0.040-0.691 0.077-0.934 0.324l-1.058 1.058c-0.56 0.56-0.387 1.508 0.337 1.832l13.618 6.105-3.91 3.91h-6.829c-0.3 0-0.587 0.12-0.801 0.33l-0.57 0.574c-0.567 0.567-0.38 1.525 0.354 1.838l5.761 2.469 2.469 5.762c0.314 0.734 1.274 0.921 1.838 0.354l0.574-0.574c0.214-0.214 0.33-0.5 0.33-0.801v-6.829l3.91-3.91 6.105 13.622c0.324 0.724 1.271 0.897 1.832 0.337l1.058-1.058c0.247-0.247 0.364-0.59 0.324-0.934l-2.282-19.003 5.521-5.521c0.17-0.17 0.307-0.367 0.407-0.587l1.541-3.386c0.324-0.697-0.397-1.421-1.101-1.101z"></path>
</symbol>
<symbol id="icon-location-icon" viewBox="0 0 32 32">
<path fill="#c8a35f" style="fill: var(--color2, #c8a35f)" d="M15.978 0c-6.467 0-11.728 5.261-11.728 11.728 0 2.971 1.872 7.168 5.564 12.475 2.698 3.88 5.352 6.882 5.464 7.008l0.7 0.789 0.7-0.789c0.111-0.126 2.766-3.128 5.464-7.008 3.692-5.307 5.564-9.505 5.564-12.475 0-6.467-5.261-11.728-11.728-11.728zM20.616 23.12c-1.824 2.624-3.667 4.882-4.639 6.034-0.969-1.149-2.805-3.399-4.628-6.019-3.421-4.917-5.229-8.862-5.229-11.407 0-5.435 4.422-9.857 9.857-9.857s9.857 4.422 9.857 9.857c0 2.542-1.804 6.481-5.218 11.392z"></path>
<path fill="#c8a35f" style="fill: var(--color2, #c8a35f)" d="M15.978 4.334c-3.817 0-6.922 3.105-6.922 6.922s3.105 6.922 6.922 6.922c3.817 0 6.922-3.105 6.922-6.922s-3.105-6.922-6.922-6.922zM15.978 16.307c-2.785 0-5.051-2.266-5.051-5.051s2.266-5.051 5.051-5.051c2.785 0 5.051 2.266 5.051 5.051s-2.266 5.051-5.051 5.051z"></path>
</symbol>
<symbol id="icon-logo" viewBox="0 0 111 32">
<path fill="#c8a35f" style="fill: var(--color2, #c8a35f)" d="M25.546 23.558c-0.427 0.752-0.931 1.459-1.505 2.11l0.015 0.015-0.533 0.535c-2.373 2.387-5.533 3.703-8.897 3.703-3.351 0-6.502-1.305-8.871-3.675s-3.675-5.521-3.675-8.871c0-0.248 0.007-0.499 0.022-0.748 0.002-0.034 0.003-0.068 0.007-0.104v-0.010c0.002-0.022 0.003-0.046 0.005-0.068v-0.012c0.003-0.051 0.009-0.104 0.014-0.155 0.003-0.043 0.007-0.087 0.012-0.133 0.007-0.067 0.014-0.135 0.021-0.202 0.005-0.039 0.009-0.084 0.015-0.126 0.007-0.055 0.014-0.118 0.022-0.179 0.005-0.034 0.010-0.068 0.015-0.102 0.007-0.056 0.017-0.12 0.027-0.181 0.005-0.033 0.012-0.070 0.017-0.106 0.005-0.031 0.010-0.062 0.017-0.092 0.007-0.039 0.015-0.085 0.024-0.13 0.007-0.039 0.015-0.082 0.024-0.125 0.010-0.050 0.019-0.097 0.031-0.149 0.072-0.342 0.161-0.685 0.261-1.020l0.003-0.009c0.012-0.044 0.026-0.089 0.041-0.132 0.012-0.038 0.024-0.075 0.036-0.114 0.072-0.219 0.15-0.441 0.234-0.654 0.012-0.029 0.024-0.062 0.036-0.092 0.014-0.032 0.026-0.067 0.041-0.103 0.017-0.041 0.036-0.087 0.055-0.133 0.014-0.034 0.031-0.074 0.048-0.111l0.007-0.017c0.024-0.051 0.046-0.104 0.070-0.155 0.017-0.039 0.034-0.077 0.053-0.114 0.316-0.683 0.701-1.343 1.14-1.962l0.072-0.097c0.050-0.068 0.099-0.137 0.15-0.202 0.024-0.031 0.050-0.065 0.075-0.097 0.055-0.072 0.111-0.142 0.166-0.21 0.032-0.039 0.065-0.082 0.099-0.121 0.031-0.038 0.065-0.077 0.099-0.118 0.032-0.039 0.068-0.080 0.103-0.12 0.039-0.044 0.079-0.091 0.118-0.135l-1.473-1.475c-2.443 2.688-3.786 6.161-3.786 9.815 0 3.908 1.521 7.58 4.284 10.343s6.435 4.284 10.343 4.284c3.92 0 7.602-1.531 10.367-4.309 0.789-0.793 1.485-1.671 2.071-2.616l-1.517-1.516z"></path>
<path fill="#fff" style="fill: var(--color1, #fff)" d="M6.826 25.174c2.083 2.083 4.854 3.231 7.8 3.231 0.092 0 0.184-0.002 0.277-0.003 0.046 0 0.091-0.002 0.137-0.003h0.007c0.068-0.003 0.135-0.007 0.203-0.010 0.055-0.003 0.108-0.007 0.162-0.010 0.027-0.002 0.051-0.003 0.073-0.005l0.038-0.003c0.050-0.003 0.099-0.009 0.15-0.014 0.044-0.003 0.085-0.007 0.128-0.012 0.031-0.003 0.058-0.007 0.084-0.009l0.056-0.007c0.036-0.005 0.072-0.009 0.109-0.014 0.137-0.017 0.27-0.036 0.402-0.058 0.038-0.007 0.073-0.014 0.109-0.019l0.012-0.002c0.029-0.005 0.058-0.010 0.085-0.015l0.014-0.003c0.038-0.007 0.075-0.014 0.113-0.022 0.099-0.019 0.197-0.039 0.292-0.062 0.065-0.014 0.13-0.031 0.195-0.046l0.009-0.002c0.017-0.003 0.032-0.007 0.050-0.012 0.048-0.012 0.091-0.024 0.135-0.034 0.038-0.010 0.073-0.019 0.108-0.029 0.031-0.009 0.058-0.015 0.084-0.024 0.026-0.007 0.046-0.012 0.065-0.019l0.015-0.005c0.027-0.007 0.055-0.015 0.082-0.024 0.046-0.014 0.085-0.026 0.125-0.039 0.032-0.010 0.060-0.019 0.091-0.027 0.092-0.031 0.185-0.061 0.275-0.094 0.026-0.009 0.050-0.017 0.073-0.026l0.019-0.007c0.032-0.012 0.061-0.022 0.089-0.032 0.046-0.017 0.085-0.032 0.126-0.048 0.034-0.014 0.065-0.024 0.094-0.036 0.056-0.022 0.108-0.043 0.159-0.065l0.154-0.065c0.048-0.021 0.096-0.041 0.14-0.061 0.027-0.012 0.050-0.022 0.073-0.032l0.022-0.010c0.038-0.017 0.075-0.036 0.113-0.053 0.232-0.111 0.461-0.229 0.682-0.355 0.024-0.014 0.046-0.027 0.070-0.039 0.051-0.029 0.102-0.060 0.152-0.089l0.253-0.155c0.111-0.072 0.227-0.147 0.352-0.232 0.034-0.024 0.068-0.048 0.102-0.072l0.014-0.010c0.026-0.019 0.051-0.036 0.077-0.055l0.007-0.005c0.019-0.014 0.038-0.027 0.056-0.041l0.007-0.005c0.032-0.022 0.063-0.046 0.094-0.070 0.036-0.026 0.070-0.053 0.103-0.079 0.024-0.019 0.043-0.034 0.063-0.050l0.024-0.019c0.034-0.027 0.070-0.055 0.104-0.084 0.036-0.029 0.072-0.058 0.106-0.085l0.009-0.007c0.067-0.055 0.132-0.111 0.198-0.167 0.020-0.017 0.039-0.034 0.060-0.053l-1.475-1.476c-1.615 1.377-3.663 2.131-5.799 2.131-4.935 0-8.95-4.015-8.95-8.95 0-2.406 0.941-4.663 2.648-6.356 0.801-0.794 1.762-1.439 2.799-1.881l-1.565-1.565c-0.998 0.518-1.909 1.182-2.71 1.979-2.102 2.086-3.258 4.863-3.258 7.822 0 2.947 1.148 5.717 3.231 7.802z"></path>
<path fill="#fff" style="fill: var(--color1, #fff)" d="M27.144 14.626c0-3.908-1.521-7.58-4.284-10.343s-6.437-4.284-10.344-4.284c-3.92 0-7.602 1.529-10.365 4.309-0.789 0.791-1.485 1.671-2.073 2.616l1.519 1.519c0.427-0.752 0.931-1.459 1.505-2.11l-0.015-0.015 0.533-0.535c2.372-2.387 5.533-3.703 8.897-3.703 3.351 0 6.502 1.305 8.871 3.675s3.675 5.519 3.675 8.871c0 0.248-0.007 0.501-0.022 0.748-0.002 0.032-0.003 0.068-0.007 0.104-0.002 0.026-0.003 0.051-0.005 0.077v0.012c-0.003 0.051-0.009 0.104-0.014 0.155-0.003 0.043-0.007 0.089-0.012 0.135-0.007 0.065-0.014 0.133-0.021 0.202-0.005 0.039-0.009 0.082-0.015 0.126-0.007 0.055-0.014 0.116-0.022 0.179-0.005 0.034-0.010 0.068-0.015 0.101-0.007 0.058-0.017 0.12-0.027 0.183-0.005 0.032-0.012 0.070-0.017 0.106-0.005 0.031-0.010 0.061-0.017 0.092-0.007 0.039-0.015 0.085-0.024 0.13-0.007 0.039-0.015 0.082-0.026 0.125-0.009 0.048-0.019 0.097-0.031 0.149-0.072 0.342-0.161 0.687-0.261 1.020-0.014 0.046-0.027 0.094-0.044 0.142-0.012 0.038-0.024 0.075-0.036 0.114-0.072 0.22-0.15 0.441-0.234 0.654-0.012 0.029-0.024 0.060-0.036 0.091-0.014 0.034-0.027 0.068-0.041 0.103-0.017 0.041-0.036 0.087-0.055 0.133-0.014 0.034-0.031 0.073-0.048 0.111l-0.007 0.017c-0.024 0.051-0.046 0.104-0.070 0.155-0.017 0.039-0.034 0.077-0.053 0.114-0.316 0.683-0.701 1.343-1.14 1.962l-0.070 0.097c-0.051 0.070-0.101 0.137-0.15 0.202-0.024 0.032-0.050 0.065-0.075 0.097-0.055 0.072-0.111 0.142-0.166 0.21-0.032 0.039-0.065 0.082-0.099 0.121-0.029 0.036-0.060 0.074-0.092 0.111l-0.007 0.007c-0.034 0.039-0.068 0.080-0.104 0.12-0.039 0.044-0.079 0.090-0.118 0.135l1.473 1.475c2.445-2.688 3.788-6.163 3.788-9.818z"></path>
<path fill="#c8a35f" style="fill: var(--color2, #c8a35f)" d="M16.019 22.866l1.565 1.565c0.998-0.518 1.909-1.182 2.71-1.979 2.1-2.086 3.255-4.865 3.255-7.824 0-2.946-1.148-5.717-3.231-7.8-2.085-2.085-4.854-3.233-7.802-3.233-0.092 0-0.185 0.002-0.277 0.003-0.046 0-0.091 0.002-0.137 0.003h-0.005c-0.068 0.003-0.135 0.007-0.203 0.010-0.055 0.003-0.108 0.007-0.162 0.010-0.027 0.002-0.051 0.003-0.073 0.005l-0.038 0.003c-0.048 0.003-0.099 0.009-0.149 0.014-0.044 0.005-0.085 0.009-0.128 0.014-0.031 0.003-0.058 0.007-0.084 0.009l-0.043 0.005c-0.005 0-0.010 0.002-0.014 0.002-0.036 0.003-0.072 0.009-0.108 0.014-0.137 0.017-0.27 0.038-0.402 0.058-0.038 0.007-0.073 0.012-0.109 0.019l-0.012 0.002c-0.029 0.005-0.056 0.010-0.084 0.015l-0.019 0.003c-0.036 0.007-0.072 0.014-0.109 0.021-0.103 0.019-0.2 0.039-0.296 0.062-0.065 0.014-0.13 0.031-0.195 0.046l-0.009 0.002c-0.017 0.003-0.032 0.007-0.050 0.012-0.048 0.012-0.091 0.024-0.135 0.034-0.038 0.010-0.072 0.019-0.108 0.029-0.031 0.009-0.058 0.015-0.085 0.024-0.026 0.007-0.046 0.014-0.065 0.019l-0.015 0.005c-0.027 0.007-0.055 0.015-0.082 0.024-0.046 0.014-0.085 0.026-0.125 0.039-0.033 0.010-0.060 0.019-0.091 0.027-0.092 0.031-0.185 0.061-0.275 0.094-0.026 0.009-0.048 0.017-0.072 0.026l-0.021 0.007c-0.031 0.012-0.058 0.021-0.085 0.032-0.048 0.017-0.089 0.032-0.13 0.050-0.034 0.014-0.063 0.026-0.094 0.038-0.056 0.022-0.108 0.043-0.159 0.065l-0.154 0.065c-0.048 0.021-0.094 0.041-0.14 0.061-0.026 0.012-0.050 0.022-0.073 0.032l-0.022 0.010c-0.038 0.017-0.075 0.036-0.113 0.053-0.232 0.111-0.461 0.229-0.682 0.355-0.026 0.014-0.046 0.026-0.070 0.039-0.048 0.027-0.097 0.056-0.144 0.084l-0.159 0.097c-0.032 0.021-0.067 0.043-0.101 0.063-0.113 0.072-0.227 0.147-0.35 0.232-0.032 0.022-0.063 0.044-0.094 0.065l-0.021 0.014c-0.029 0.021-0.055 0.039-0.080 0.058l-0.010 0.007c-0.017 0.014-0.034 0.026-0.053 0.039l-0.007 0.005c-0.032 0.022-0.063 0.046-0.094 0.070-0.036 0.026-0.068 0.053-0.103 0.079-0.024 0.019-0.044 0.034-0.063 0.050l-0.024 0.019c-0.034 0.027-0.070 0.055-0.104 0.084-0.039 0.031-0.077 0.063-0.114 0.094-0.067 0.055-0.132 0.109-0.198 0.167-0.021 0.017-0.039 0.034-0.060 0.053l1.476 1.476c1.615-1.377 3.663-2.132 5.799-2.132 4.935 0 8.95 4.015 8.95 8.95 0 2.406-0.941 4.663-2.648 6.356-0.8 0.791-1.76 1.437-2.797 1.88z"></path>
<path fill="#fff" style="fill: var(--color1, #fff)" d="M40.292 21.033l-0.427 1.29h0.863l-0.427-1.29h-0.009z"></path>
<path fill="#fff" style="fill: var(--color1, #fff)" d="M40.91 13.739c-0.145 0.65-0.422 1.145-0.822 1.485-0.409 0.327-0.904 0.495-1.494 0.495-0.481 0-0.927-0.123-1.349-0.363-0.409-0.241-0.713-0.613-0.904-1.108-0.209-0.495-0.304-1.086-0.304-1.749 0-0.518 0.086-1.026 0.254-1.508 0.168-0.486 0.459-0.872 0.858-1.158 0.409-0.277 0.927-0.422 1.531-0.422 0.531 0 0.963 0.123 1.313 0.386 0.35 0.254 0.613 0.663 0.795 1.231l0.023 0.059 1.208-0.277-0.023-0.073c-0.227-0.749-0.627-1.34-1.194-1.762-0.568-0.409-1.267-0.613-2.098-0.613-0.722 0-1.399 0.159-2.017 0.481-0.599 0.336-1.081 0.818-1.408 1.449-0.327 0.627-0.495 1.372-0.495 2.207 0 0.772 0.145 1.508 0.436 2.171 0.291 0.677 0.722 1.208 1.29 1.558 0.554 0.363 1.29 0.545 2.185 0.545 0.858 0 1.594-0.241 2.194-0.699 0.604-0.459 1.013-1.145 1.245-2.026l0.023-0.073-1.217-0.3-0.027 0.064z"></path>
<path fill="#fff" style="fill: var(--color1, #fff)" d="M51.96 8.893c-0.618-0.363-1.317-0.545-2.076-0.545-1.172 0-2.135 0.386-2.87 1.145s-1.108 1.835-1.108 3.17c0 0.713 0.159 1.385 0.481 2.026 0.313 0.64 0.786 1.145 1.399 1.522 0.613 0.372 1.317 0.554 2.085 0.554 0.722 0 1.399-0.168 2.012-0.509 0.627-0.327 1.108-0.831 1.458-1.485 0.336-0.64 0.509-1.385 0.509-2.207 0-0.809-0.168-1.531-0.481-2.171-0.322-0.631-0.795-1.14-1.408-1.499zM51.828 14.897c-0.509 0.54-1.172 0.822-1.953 0.822-0.772 0-1.422-0.277-1.944-0.808-0.509-0.545-0.772-1.29-0.772-2.23 0-1.172 0.277-2.026 0.809-2.521s1.181-0.749 1.917-0.749c0.531 0 0.999 0.132 1.422 0.386 0.409 0.254 0.736 0.627 0.954 1.099s0.327 1.036 0.327 1.676c0 0.999-0.254 1.785-0.758 2.325z"></path>
<path fill="#fff" style="fill: var(--color1, #fff)" d="M64.396 8.698l-1.944 5.537c-0.159 0.445-0.277 0.795-0.363 1.072l-0.327-0.963-1.939-5.718h-0.132v2.957l1.799 5.187h1.072l1.835-5.178v-2.893z"></path>
<path fill="#fff" style="fill: var(--color1, #fff)" d="M59.254 8.625h-1.181v8.144h1.181v-8.144z"></path>
<path fill="#fff" style="fill: var(--color1, #fff)" d="M65.999 8.625h-1.172v8.144h1.172v-8.144z"></path>
<path fill="#fff" style="fill: var(--color1, #fff)" d="M71.44 8.625h-1.217v8.144h1.217v-8.144z"></path>
<path fill="#fff" style="fill: var(--color1, #fff)" d="M76.336 9.892c-0.182-0.336-0.399-0.613-0.685-0.795-0.278-0.195-0.627-0.327-1.027-0.386-0.291-0.059-0.713-0.086-1.254-0.086h-1.494v1.085h1.581c0.481 0 0.808 0.023 0.99 0.073 0.264 0.073 0.482 0.218 0.641 0.445 0.168 0.227 0.241 0.495 0.241 0.822 0 0.436-0.131 0.772-0.409 1.013s-0.758 0.363-1.435 0.363h-1.603v1.099h1.594c1.158 0 1.99-0.254 2.435-0.736 0.458-0.481 0.686-1.072 0.686-1.771-0.005-0.413-0.091-0.79-0.259-1.126z"></path>
<path fill="#fff" style="fill: var(--color1, #fff)" d="M83.994 8.625l-3.183 8.144h1.29l0.363-0.954h-0.014l0.918-2.471 0.195-0.509 0.677-1.799h0.013c0.145-0.4 0.264-0.809 0.364-1.208 0.122 0.386 0.291 0.858 0.495 1.385l0.822 2.121h-2.085l-0.372 0.999h2.848l0.954 2.425h1.385l-3.402-8.144h-1.267v0.009z"></path>
<path fill="#fff" style="fill: var(--color1, #fff)" d="M93.891 8.625h-1.135v8.144h1.135v-8.144z"></path>
<path fill="#fff" style="fill: var(--color1, #fff)" d="M98.133 14.743l-0.023-0.036v2.062h1.204v-8.144h-1.181v6.118z"></path>
<path fill="#fff" style="fill: var(--color1, #fff)" d="M94.322 11.232l3.352 4.919v-2.085l-3.352-4.91v2.076z"></path>
<path fill="#fff" style="fill: var(--color1, #fff)" d="M109.855 8.625l-1.603 2.389c-0.314 0.472-0.591 0.918-0.831 1.303v-0.014l-0.677 1.026v3.438h1.231v-3.438l3.315-4.705h-1.435z"></path>
<path fill="#fff" style="fill: var(--color1, #fff)" d="M107.167 11.881l-0.504-0.809-1.63-2.448h-1.495l2.943 4.319 0.686-1.063z"></path>
<path fill="#fff" style="fill: var(--color1, #fff)" d="M34.783 20.829h0.809v2.553h0.45v-2.553h0.809v-0.4h-2.067v0.4z"></path>
<path fill="#fff" style="fill: var(--color1, #fff)" d="M40.11 20.429l-1.072 2.952h0.472l0.227-0.659h1.122l0.227 0.659h0.472l-1.072-2.952h-0.377zM39.865 22.323l0.427-1.29h0.009l0.427 1.29h-0.863z"></path>
<path fill="#fff" style="fill: var(--color1, #fff)" d="M45.243 22.178h0.599v0.154c-0.005 0.186-0.059 0.336-0.173 0.45-0.114 0.118-0.259 0.177-0.431 0.177-0.105 0-0.195-0.023-0.273-0.068-0.077-0.036-0.141-0.086-0.186-0.15-0.059-0.064-0.095-0.145-0.114-0.25-0.023-0.104-0.032-0.3-0.032-0.59s0.009-0.486 0.032-0.595c0.018-0.1 0.059-0.182 0.114-0.245 0.045-0.059 0.109-0.114 0.186-0.15 0.077-0.041 0.168-0.059 0.273-0.064 0.141 0.005 0.263 0.045 0.363 0.123 0.095 0.082 0.163 0.186 0.2 0.304h0.472c-0.045-0.245-0.159-0.454-0.341-0.622s-0.413-0.25-0.695-0.254c-0.232 0.005-0.427 0.059-0.581 0.168-0.159 0.104-0.273 0.227-0.345 0.363-0.045 0.073-0.077 0.163-0.1 0.282-0.018 0.118-0.032 0.345-0.032 0.69 0 0.336 0.009 0.568 0.032 0.686 0.009 0.064 0.023 0.118 0.041 0.159s0.036 0.082 0.059 0.127c0.073 0.136 0.186 0.254 0.345 0.359 0.154 0.109 0.35 0.163 0.581 0.168 0.3-0.005 0.55-0.109 0.749-0.304 0.195-0.2 0.3-0.445 0.304-0.745v-0.599h-1.049v0.427z"></path>
<path fill="#fff" style="fill: var(--color1, #fff)" d="M49.748 20.429h-0.445v2.952h1.885v-0.422h-1.44v-2.53z"></path>
<path fill="#fff" style="fill: var(--color1, #fff)" d="M54.544 20.429h-0.445v2.952h0.445v-2.952z"></path>
<path fill="#fff" style="fill: var(--color1, #fff)" d="M59.418 22.527h-0.005l-1.34-2.098h-0.418v2.952h0.445v-2.098h0.009l1.335 2.098h0.422v-2.952h-0.45v2.098z"></path>
<path fill="#fff" style="fill: var(--color1, #fff)" d="M62.979 23.381h1.885v-0.422h-1.435v-0.868h1.226v-0.395h-1.226v-0.845h1.435v-0.422h-1.885v2.952z"></path>
<path fill="#fff" style="fill: var(--color1, #fff)" d="M72.212 22.178h0.6v0.154c-0.005 0.186-0.059 0.336-0.173 0.45-0.113 0.118-0.259 0.177-0.431 0.177-0.105 0-0.195-0.023-0.273-0.068-0.077-0.036-0.141-0.086-0.186-0.15-0.059-0.064-0.095-0.145-0.113-0.25-0.023-0.104-0.032-0.3-0.032-0.59s0.009-0.486 0.032-0.595c0.018-0.1 0.059-0.182 0.113-0.245 0.046-0.059 0.109-0.114 0.186-0.15 0.077-0.041 0.168-0.059 0.273-0.064 0.145 0.005 0.263 0.045 0.363 0.123 0.095 0.082 0.163 0.186 0.2 0.304h0.472c-0.045-0.245-0.159-0.454-0.34-0.622-0.177-0.168-0.414-0.25-0.695-0.254-0.232 0.005-0.427 0.059-0.582 0.168-0.159 0.104-0.273 0.227-0.345 0.363-0.046 0.073-0.077 0.163-0.1 0.282-0.018 0.118-0.032 0.345-0.032 0.69 0 0.336 0.009 0.568 0.032 0.686 0.009 0.064 0.023 0.118 0.041 0.159s0.036 0.082 0.059 0.127c0.072 0.136 0.186 0.254 0.345 0.359 0.154 0.109 0.35 0.163 0.582 0.168 0.3-0.005 0.55-0.109 0.749-0.304 0.195-0.2 0.3-0.445 0.304-0.745v-0.599h-1.049v0.427z"></path>
<path fill="#fff" style="fill: var(--color1, #fff)" d="M78.149 20.933c-0.068-0.136-0.182-0.259-0.337-0.363-0.159-0.109-0.354-0.164-0.586-0.168-0.232 0.005-0.427 0.059-0.582 0.168-0.159 0.104-0.272 0.227-0.345 0.363-0.045 0.073-0.077 0.163-0.099 0.282-0.018 0.118-0.032 0.345-0.032 0.69 0 0.336 0.009 0.568 0.032 0.686 0.009 0.064 0.022 0.118 0.040 0.159s0.037 0.082 0.059 0.127c0.073 0.136 0.186 0.254 0.345 0.359 0.154 0.109 0.35 0.163 0.582 0.168 0.237-0.005 0.431-0.064 0.586-0.168s0.269-0.223 0.337-0.359c0.049-0.073 0.086-0.168 0.104-0.286s0.027-0.345 0.027-0.686c0-0.341-0.009-0.572-0.027-0.69-0.018-0.114-0.055-0.209-0.104-0.282zM77.799 22.496c-0.023 0.105-0.064 0.186-0.118 0.25-0.045 0.059-0.104 0.109-0.177 0.15-0.077 0.045-0.173 0.068-0.277 0.068s-0.195-0.023-0.273-0.068c-0.077-0.036-0.141-0.086-0.186-0.15-0.059-0.064-0.095-0.145-0.113-0.25-0.023-0.104-0.032-0.3-0.032-0.59s0.009-0.486 0.032-0.595c0.018-0.1 0.058-0.182 0.113-0.245 0.045-0.059 0.109-0.114 0.186-0.15 0.077-0.041 0.168-0.059 0.273-0.064 0.104 0.005 0.2 0.023 0.277 0.064 0.073 0.041 0.132 0.091 0.177 0.15 0.059 0.064 0.1 0.145 0.118 0.245 0.018 0.104 0.032 0.304 0.032 0.595s-0.010 0.486-0.032 0.59z"></path>
<path fill="#fff" style="fill: var(--color1, #fff)" d="M81.287 23.381h1.885v-0.422h-1.436v-0.868h1.226v-0.395h-1.226v-0.845h1.436v-0.422h-1.885v2.952z"></path>
<path fill="#fff" style="fill: var(--color1, #fff)" d="M87.183 21.697c-0.141-0.018-0.25-0.032-0.332-0.045-0.145-0.027-0.25-0.077-0.318-0.145s-0.1-0.145-0.1-0.232c0.005-0.141 0.050-0.25 0.15-0.318 0.090-0.068 0.209-0.105 0.345-0.105 0.268 0.005 0.509 0.082 0.731 0.227l0.25-0.368c-0.272-0.195-0.59-0.3-0.958-0.304-0.305 0.005-0.541 0.082-0.709 0.241-0.173 0.159-0.259 0.368-0.259 0.622 0 0.213 0.068 0.395 0.205 0.545 0.131 0.145 0.327 0.241 0.582 0.282 0.141 0.018 0.272 0.036 0.39 0.055 0.259 0.045 0.386 0.177 0.386 0.395-0.005 0.268-0.2 0.404-0.582 0.409-0.322-0.005-0.604-0.1-0.84-0.295l-0.295 0.336c0.314 0.268 0.69 0.404 1.126 0.404 0.677-0.009 1.022-0.295 1.036-0.858 0-0.209-0.064-0.391-0.195-0.55-0.131-0.154-0.336-0.254-0.613-0.295z"></path>
<path fill="#fff" style="fill: var(--color1, #fff)" d="M96.048 21.696h-1.167v-1.267h-0.449v2.952h0.449v-1.29h1.167v1.29h0.45v-2.952h-0.45v1.267z"></path>
<path fill="#fff" style="fill: var(--color1, #fff)" d="M99.609 23.381h1.885v-0.422h-1.439v-0.868h1.226v-0.395h-1.226v-0.845h1.439v-0.422h-1.885v2.952z"></path>
<path fill="#fff" style="fill: var(--color1, #fff)" d="M106.449 21.251c-0.010-0.273-0.105-0.481-0.296-0.631-0.154-0.132-0.354-0.195-0.6-0.195h-1.153v2.952h0.449v-1.263h0.573l0.609 1.263h0.531l-0.686-1.308c0.377-0.141 0.568-0.413 0.573-0.818zM104.85 21.724v-0.895h0.7c0.141 0 0.254 0.032 0.327 0.091 0.095 0.068 0.145 0.182 0.15 0.336 0 0.127-0.040 0.236-0.122 0.323-0.081 0.095-0.209 0.145-0.377 0.145h-0.677z"></path>
<path fill="#fff" style="fill: var(--color1, #fff)" d="M109.419 23.381h1.885v-0.422h-1.44v-0.868h1.226v-0.395h-1.226v-0.845h1.44v-0.422h-1.885v2.952z"></path>
</symbol>
<symbol id="icon-mouse" viewBox="0 0 32 32">
<path fill="#fff" style="fill: var(--color1, #fff)" opacity="0.8" d="M15.975 0c-5.19 0-9.413 4.222-9.413 9.413v13.175c0 5.19 4.222 9.413 9.413 9.413s9.413-4.222 9.413-9.413v-13.175c0-5.19-4.222-9.413-9.413-9.413zM23.468 22.587c0 4.131-3.361 7.493-7.493 7.493s-7.493-3.361-7.493-7.493v-13.175c0-4.131 3.361-7.493 7.493-7.493s7.493 3.361 7.493 7.493v13.175z"></path>
<path fill="#fff" style="fill: var(--color1, #fff)" opacity="0.8" d="M15.975 6.366c-0.53 0-0.96 0.43-0.96 0.96v4.418c0 0.53 0.43 0.96 0.96 0.96s0.96-0.43 0.96-0.96v-4.418c0-0.53-0.43-0.96-0.96-0.96z"></path>
</symbol>
</defs>
</svg>
